<?xml version="1.0" standalone="no"?>
<svg xmlns="http://www.w3.org/2000/svg" viewBox="0 0 185.568 36" width="185.568" height="36"><g fill="#01A7C2" color="#01A7C2" transform="translate(0 3.9999999999999982) scale(0.2800001)"><svg width="100.0" height="100.0" x="0.0" y="0.0" viewBox="0 0 100 100"><g><path fill-rule="evenodd" clip-rule="evenodd" d="M47.102,0c1.928,0,3.856,0,5.784,0c8.338,0.642,15.042,2.917,20.99,5.95   c-9.545,9.958-19.296,19.708-29.253,29.252c-2.969-3.846-6.214-6.932-13.221-6.279c-6.848,0.638-12.008,6.789-12.065,13.552   c-0.093,11.1,12.636,17.426,21.981,11.239c2.455-1.625,4.708-4.378,6.941-6.611c6.658-6.659,13.369-13.473,19.997-20.164   c5.471,4.927,10.706,10.542,16.196,16.032c0.574,0.574,2.305,1.916,2.314,2.148c0.021,0.503-3.571,3.738-3.967,4.132   c-4.035,4.035-8.129,8.161-12.23,11.9c-2.845-5.982-12.565-8.104-18.84-4.297c-3.834,2.326-6.286,6.06-6.446,11.238   c-0.221,7.125,4.855,13.32,11.9,14.047c9.767,1.009,13.735-5.969,18.51-10.742c8.042-8.042,16.394-16.425,24.295-23.963   c0.308,16.392-5.383,28.214-13.388,36.524c-8.017,8.322-18.679,14.98-33.715,16.03c-1.928,0-3.855,0-5.784,0   c-14.023-1.231-24.828-6.812-32.558-14.543C6.814,77.715,1.225,66.916,0,52.887c0-1.929,0-3.857,0-5.785   C0.812,33.583,7.182,22,14.709,14.544C22.682,6.645,33.328,1.089,47.102,0z"></path></g></svg></g><path fill="#006989" fill-rule="nonzero" d="M7.15 0.91Q15.82 0.91 15.82 9.17L15.82 9.17Q15.82 17.42 7.15 17.42L7.15 17.42L0 17.42L0 0.91L7.15 0.91ZM5.30 4.87L5.30 13.46L7.06 13.46Q10.39 13.46 10.39 9.89L10.39 9.89L10.39 8.45Q10.39 4.87 7.06 4.87L7.06 4.87L5.30 4.87ZM25.66 3.22L22.58 3.22L24.82 0.02L29.42 0.02L29.47 0.12L25.66 3.22ZM24.89 4.46Q28.37 4.46 30.20 6.10Q32.04 7.73 32.04 11.09L32.04 11.09L32.04 11.90L22.54 11.90Q22.54 13.27 23.15 13.97Q23.76 14.66 25.08 14.66L25.08 14.66Q26.28 14.66 26.84 14.16Q27.41 13.66 27.41 12.82L27.41 12.82L32.04 12.82Q32.04 15.12 30.29 16.42Q28.54 17.71 25.18 17.71L25.18 17.71Q21.65 17.71 19.70 16.07Q17.76 14.42 17.76 11.09L17.76 11.09Q17.76 7.82 19.66 6.14Q21.55 4.46 24.89 4.46L24.89 4.46ZM25.08 7.51Q22.82 7.51 22.56 9.65L22.56 9.65L27.22 9.65Q27.22 8.66 26.65 8.09Q26.09 7.51 25.08 7.51L25.08 7.51ZM47.45 17.42L43.56 17.42L43.15 15.62Q41.76 17.71 39.12 17.71L39.12 17.71Q36.55 17.71 35.16 16.03Q33.77 14.35 33.77 11.06L33.77 11.06Q33.77 7.80 35.16 6.13Q36.55 4.46 39.12 4.46L39.12 4.46Q41.30 4.46 42.67 5.93L42.67 5.93L42.67 0.02L47.45 0.02L47.45 17.42ZM40.61 7.99Q38.54 7.99 38.54 10.46L38.54 10.46L38.54 11.74Q38.54 14.18 40.61 14.18L40.61 14.18Q41.66 14.18 42.19 13.44Q42.72 12.70 42.72 11.50L42.72 11.50L42.72 10.70Q42.72 9.50 42.19 8.75Q41.66 7.99 40.61 7.99L40.61 7.99ZM55.30 3.26L50.52 3.26L50.52 0.02L55.30 0.02L55.30 3.26ZM55.30 17.42L50.52 17.42L50.52 4.75L55.30 4.75L55.30 17.42ZM64.37 4.46Q66.91 4.46 68.68 5.46Q70.44 6.46 70.44 8.54L70.44 8.54L66.00 8.54Q66.00 7.85 65.38 7.56L65.38 7.56Q64.94 7.32 64.30 7.32L64.30 7.32Q62.57 7.32 62.57 8.14L62.57 8.14Q62.57 8.59 63.17 8.78Q63.77 8.98 65.14 9.19L65.14 9.19Q66.82 9.43 67.94 9.76Q69.07 10.08 69.91 10.91Q70.75 11.74 70.75 13.22L70.75 13.22Q70.75 15.65 68.94 16.68Q67.13 17.71 64.20 17.71L64.20 17.71Q62.52 17.71 61.03 17.24Q59.54 16.78 58.61 15.79Q57.67 14.81 57.67 13.30L57.67 13.30L62.11 13.30L62.11 13.39Q62.14 14.21 62.80 14.53Q63.46 14.86 64.20 14.86L64.20 14.86Q66.19 14.86 66.19 13.92L66.19 13.92Q66.19 13.44 65.57 13.22Q64.94 13.01 63.53 12.77L63.53 12.77Q61.82 12.48 60.73 12.14Q59.64 11.81 58.82 11.00Q58.01 10.20 58.01 8.76L58.01 8.76Q58.01 6.43 59.77 5.45Q61.54 4.46 64.37 4.46L64.37 4.46ZM79.56 4.46Q82.68 4.46 84.61 5.80Q86.54 7.13 86.54 9.86L86.54 9.86L81.91 9.86Q81.91 7.70 79.56 7.70L79.56 7.70Q77.21 7.70 77.21 10.42L77.21 10.42L77.21 11.78Q77.21 14.47 79.66 14.47L79.66 14.47Q82.10 14.47 82.10 12.26L82.10 12.26L86.54 12.26Q86.54 15.02 84.61 16.37Q82.68 17.71 79.56 17.71L79.56 17.71Q76.22 17.71 74.33 16.03Q72.43 14.35 72.43 11.09L72.43 11.09Q72.43 7.82 74.33 6.14Q76.22 4.46 79.56 4.46L79.56 4.46ZM93.34 17.42L88.56 17.42L88.56 0.02L93.34 0.02L93.34 17.42ZM102.65 4.46Q105.55 4.46 107.38 5.44Q109.20 6.41 109.20 8.59L109.20 8.59L109.20 13.54Q109.20 13.94 109.39 14.21Q109.58 14.47 109.97 14.47L109.97 14.47L110.83 14.47L110.83 17.23Q110.76 17.28 110.46 17.39Q110.16 17.50 109.61 17.60Q109.06 17.71 108.34 17.71L108.34 17.71Q106.94 17.71 106.04 17.29Q105.14 16.87 104.81 16.13L104.81 16.13Q103.90 16.85 102.77 17.28Q101.64 17.71 100.13 17.71L100.13 17.71Q95.66 17.71 95.66 14.16L95.66 14.16Q95.66 12.31 96.66 11.34Q97.66 10.37 99.53 10.01Q101.40 9.65 104.42 9.65L104.42 9.65L104.42 9.02Q104.42 8.28 103.91 7.90Q103.39 7.51 102.58 7.51L102.58 7.51Q101.83 7.51 101.29 7.78Q100.75 8.04 100.75 8.62L100.75 8.62L100.75 8.71L96.05 8.71Q96.02 8.59 96.02 8.38L96.02 8.38Q96.02 6.58 97.74 5.52Q99.46 4.46 102.65 4.46L102.65 4.46ZM104.42 11.90Q102.38 11.90 101.41 12.35Q100.44 12.79 100.44 13.54L100.44 13.54Q100.44 14.74 102.07 14.74L102.07 14.74Q103.01 14.74 103.72 14.23Q104.42 13.73 104.42 12.98L104.42 12.98L104.42 11.90ZM118.42 4.46Q120.96 4.46 122.72 5.46Q124.49 6.46 124.49 8.54L124.49 8.54L120.05 8.54Q120.05 7.85 119.42 7.56L119.42 7.56Q118.99 7.32 118.34 7.32L118.34 7.32Q116.62 7.32 116.62 8.14L116.62 8.14Q116.62 8.59 117.22 8.78Q117.82 8.98 119.18 9.19L119.18 9.19Q120.86 9.43 121.99 9.76Q123.12 10.08 123.96 10.91Q124.80 11.74 124.80 13.22L124.80 13.22Q124.80 15.65 122.99 16.68Q121.18 17.71 118.25 17.71L118.25 17.71Q116.57 17.71 115.08 17.24Q113.59 16.78 112.66 15.79Q111.72 14.81 111.72 13.30L111.72 13.30L116.16 13.30L116.16 13.39Q116.18 14.21 116.84 14.53Q117.50 14.86 118.25 14.86L118.25 14.86Q120.24 14.86 120.24 13.92L120.24 13.92Q120.24 13.44 119.62 13.22Q118.99 13.01 117.58 12.77L117.58 12.77Q115.87 12.48 114.78 12.14Q113.69 11.81 112.87 11.00Q112.06 10.20 112.06 8.76L112.06 8.76Q112.06 6.43 113.82 5.45Q115.58 4.46 118.42 4.46L118.42 4.46ZM132 3.26L127.22 3.26L127.22 0.02L132 0.02L132 3.26ZM132 17.42L127.22 17.42L127.22 4.75L132 4.75L132 17.42ZM139.82 9.60L143.88 4.75L149.45 4.75L144.77 9.86L149.57 17.42L144.14 17.42L141.48 13.08L139.82 14.69L139.82 17.42L135.05 17.42L135.05 0L139.82 0L139.82 9.60Z" transform="translate(36, 9.288)"></path></svg>